<mxfile host="65bd71144e">
    <diagram id="cFt7la1Gk6weGgbceIwt" name="Page-1">
        <mxGraphModel dx="1243" dy="960" grid="1" gridSize="10" guides="1" tooltips="1" connect="1" arrows="1" fold="1" page="1" pageScale="1" pageWidth="1169" pageHeight="827" math="0" shadow="0">
            <root>
                <mxCell id="0"/>
                <mxCell id="1" parent="0"/>
                <mxCell id="2" value="" style="rounded=1;whiteSpace=wrap;html=1;fillColor=none;" vertex="1" parent="1">
                    <mxGeometry x="360" y="333" width="420" height="180" as="geometry"/>
                </mxCell>
                <mxCell id="19" value="" style="shape=document;whiteSpace=wrap;html=1;boundedLbl=1;strokeColor=none;fillColor=#4D4D4D;size=0.875;" vertex="1" parent="1">
                    <mxGeometry x="460" y="423" width="300" height="80" as="geometry"/>
                </mxCell>
                <mxCell id="4" value="" style="endArrow=none;html=1;fillColor=#1ba1e2;strokeColor=#006EAF;strokeWidth=4;" edge="1" parent="1">
                    <mxGeometry width="50" height="50" relative="1" as="geometry">
                        <mxPoint x="460" y="422.71000000000004" as="sourcePoint"/>
                        <mxPoint x="760" y="422.71000000000004" as="targetPoint"/>
                    </mxGeometry>
                </mxCell>
                <mxCell id="5" value="" style="endArrow=none;html=1;strokeColor=#999999;" edge="1" parent="1">
                    <mxGeometry width="50" height="50" relative="1" as="geometry">
                        <mxPoint x="484.9200000000001" y="423" as="sourcePoint"/>
                        <mxPoint x="484.9200000000001" y="373" as="targetPoint"/>
                    </mxGeometry>
                </mxCell>
                <mxCell id="6" value="" style="endArrow=none;html=1;strokeColor=#999999;" edge="1" parent="1">
                    <mxGeometry width="50" height="50" relative="1" as="geometry">
                        <mxPoint x="554.9200000000001" y="423" as="sourcePoint"/>
                        <mxPoint x="554.9200000000001" y="373" as="targetPoint"/>
                    </mxGeometry>
                </mxCell>
                <mxCell id="7" value="" style="endArrow=none;html=1;strokeColor=#999999;" edge="1" parent="1">
                    <mxGeometry width="50" height="50" relative="1" as="geometry">
                        <mxPoint x="704.88" y="423" as="sourcePoint"/>
                        <mxPoint x="704.88" y="373" as="targetPoint"/>
                    </mxGeometry>
                </mxCell>
                <mxCell id="8" value="" style="ellipse;whiteSpace=wrap;html=1;aspect=fixed;fillColor=#999999;strokeColor=#999999;" vertex="1" parent="1">
                    <mxGeometry x="480" y="363" width="10" height="10" as="geometry"/>
                </mxCell>
                <mxCell id="9" value="" style="ellipse;whiteSpace=wrap;html=1;aspect=fixed;fillColor=#999999;strokeColor=#999999;" vertex="1" parent="1">
                    <mxGeometry x="550" y="363" width="10" height="10" as="geometry"/>
                </mxCell>
                <mxCell id="10" value="" style="ellipse;whiteSpace=wrap;html=1;aspect=fixed;fillColor=#999999;strokeColor=#999999;" vertex="1" parent="1">
                    <mxGeometry x="700" y="363" width="10" height="10" as="geometry"/>
                </mxCell>
                <mxCell id="11" value="Domain 1&lt;span style=&quot;color: rgba(0, 0, 0, 0); font-family: monospace; font-size: 0px; text-align: start;&quot;&gt;%3CmxGraphModel%3E%3Croot%3E%3CmxCell%20id%3D%220%22%2F%3E%3CmxCell%20id%3D%221%22%20parent%3D%220%22%2F%3E%3CmxCell%20id%3D%222%22%20value%3D%22%22%20style%3D%22ellipse%3BwhiteSpace%3Dwrap%3Bhtml%3D1%3Baspect%3Dfixed%3BfillColor%3D%23f0f0f0%3B%22%20vertex%3D%221%22%20parent%3D%221%22%3E%3CmxGeometry%20x%3D%22330%22%20y%3D%22520%22%20width%3D%2210%22%20height%3D%2210%22%20as%3D%22geometry%22%2F%3E%3C%2FmxCell%3E%3C%2Froot%3E%3C%2FmxGraphModel%3E&lt;/span&gt;" style="shape=step;perimeter=stepPerimeter;whiteSpace=wrap;html=1;fixedSize=1;fillColor=#1ba1e2;fontColor=#ffffff;strokeColor=#006EAF;" vertex="1" parent="1">
                    <mxGeometry x="460" y="413" width="110" height="20" as="geometry"/>
                </mxCell>
                <mxCell id="12" value="Domain 2&lt;span style=&quot;color: rgba(0, 0, 0, 0); font-family: monospace; font-size: 0px; text-align: start;&quot;&gt;%3CmxGraphModel%3E%3Croot%3E%3CmxCell%20id%3D%220%22%2F%3E%3CmxCell%20id%3D%221%22%20parent%3D%220%22%2F%3E%3CmxCell%20id%3D%222%22%20value%3D%22%22%20style%3D%22ellipse%3BwhiteSpace%3Dwrap%3Bhtml%3D1%3Baspect%3Dfixed%3BfillColor%3D%23f0f0f0%3B%22%20vertex%3D%221%22%20parent%3D%221%22%3E%3CmxGeometry%20x%3D%22330%22%20y%3D%22520%22%20width%3D%2210%22%20height%3D%2210%22%20as%3D%22geometry%22%2F%3E%3C%2FmxCell%3E%3C%2Froot%3E%3C%2FmxGraphModel%3&lt;/span&gt;" style="shape=step;perimeter=stepPerimeter;whiteSpace=wrap;html=1;fixedSize=1;fillColor=#1ba1e2;fontColor=#ffffff;strokeColor=#006EAF;" vertex="1" parent="1">
                    <mxGeometry x="585" y="413" width="110" height="20" as="geometry"/>
                </mxCell>
                <mxCell id="13" value="Plot Layout" style="text;html=1;strokeColor=none;fillColor=none;align=center;verticalAlign=middle;whiteSpace=wrap;rounded=0;" vertex="1" parent="1">
                    <mxGeometry x="360" y="343" width="70" height="30" as="geometry"/>
                </mxCell>
                <mxCell id="21" value="" style="ellipse;whiteSpace=wrap;html=1;aspect=fixed;fillColor=#4D4D4D;strokeColor=#000000;" vertex="1" parent="1">
                    <mxGeometry x="500" y="433" width="10" height="10" as="geometry"/>
                </mxCell>
                <mxCell id="22" value="" style="ellipse;whiteSpace=wrap;html=1;aspect=fixed;fillColor=#4D4D4D;strokeColor=#000000;" vertex="1" parent="1">
                    <mxGeometry x="560" y="433" width="10" height="10" as="geometry"/>
                </mxCell>
                <mxCell id="23" value="" style="rhombus;whiteSpace=wrap;html=1;strokeColor=#6F0000;fillColor=#a20025;fontColor=#ffffff;" vertex="1" parent="1">
                    <mxGeometry x="530" y="433" width="10" height="10" as="geometry"/>
                </mxCell>
                <mxCell id="24" value="" style="rhombus;whiteSpace=wrap;html=1;strokeColor=#6F0000;fillColor=#a20025;fontColor=#ffffff;" vertex="1" parent="1">
                    <mxGeometry x="585" y="433" width="10" height="10" as="geometry"/>
                </mxCell>
                <mxCell id="25" value="" style="rhombus;whiteSpace=wrap;html=1;strokeColor=#6F0000;fillColor=#a20025;fontColor=#ffffff;" vertex="1" parent="1">
                    <mxGeometry x="620" y="433" width="10" height="10" as="geometry"/>
                </mxCell>
                <mxCell id="28" value="&lt;h1&gt;Protein &amp;amp; Domain data&lt;/h1&gt;&lt;p&gt;&lt;u&gt;&lt;i&gt;get_domains.R&lt;/i&gt;&lt;/u&gt;&lt;/p&gt;&lt;p&gt;This function takes the gene name as an input and returns a table containing the Protein length and domain names and coordinates by using the Uniprot API&lt;/p&gt;" style="text;html=1;strokeColor=#006EAF;fillColor=#1ba1e2;spacing=5;spacingTop=-20;whiteSpace=wrap;overflow=hidden;rounded=0;fontColor=#ffffff;" vertex="1" parent="1">
                    <mxGeometry x="850" y="363" width="280" height="137" as="geometry"/>
                </mxCell>
                <mxCell id="29" value="" style="curved=1;endArrow=classic;html=1;strokeColor=#006EAF;strokeWidth=4;entryX=0;entryY=0;entryDx=0;entryDy=0;fillColor=#1ba1e2;" edge="1" parent="1" target="28">
                    <mxGeometry width="50" height="50" relative="1" as="geometry">
                        <mxPoint x="750" y="423" as="sourcePoint"/>
                        <mxPoint x="810" y="373" as="targetPoint"/>
                        <Array as="points">
                            <mxPoint x="780" y="373"/>
                        </Array>
                    </mxGeometry>
                </mxCell>
                <mxCell id="30" value="" style="shape=table;html=1;whiteSpace=wrap;startSize=0;container=1;collapsible=0;childLayout=tableLayout;strokeColor=#006EAF;fillColor=#1ba1e2;fontColor=#ffffff;" vertex="1" parent="1">
                    <mxGeometry x="890" y="520" width="180" height="120" as="geometry"/>
                </mxCell>
                <mxCell id="31" value="" style="shape=tableRow;horizontal=0;startSize=0;swimlaneHead=0;swimlaneBody=0;top=0;left=0;bottom=0;right=0;collapsible=0;dropTarget=0;fillColor=none;points=[[0,0.5],[1,0.5]];portConstraint=eastwest;strokeColor=default;" vertex="1" parent="30">
                    <mxGeometry width="180" height="40" as="geometry"/>
                </mxCell>
                <mxCell id="32" value="&lt;b&gt;&lt;u&gt;name&lt;/u&gt;&lt;/b&gt;" style="shape=partialRectangle;html=1;whiteSpace=wrap;connectable=0;fillColor=none;top=0;left=0;bottom=0;right=0;overflow=hidden;strokeColor=default;" vertex="1" parent="31">
                    <mxGeometry width="60" height="40" as="geometry">
                        <mxRectangle width="60" height="40" as="alternateBounds"/>
                    </mxGeometry>
                </mxCell>
                <mxCell id="33" value="&lt;b&gt;&lt;u&gt;type&lt;/u&gt;&lt;/b&gt;" style="shape=partialRectangle;html=1;whiteSpace=wrap;connectable=0;fillColor=none;top=0;left=0;bottom=0;right=0;overflow=hidden;strokeColor=default;" vertex="1" parent="31">
                    <mxGeometry x="60" width="60" height="40" as="geometry">
                        <mxRectangle width="60" height="40" as="alternateBounds"/>
                    </mxGeometry>
                </mxCell>
                <mxCell id="34" value="&lt;b&gt;&lt;u&gt;start-end&lt;/u&gt;&lt;/b&gt;" style="shape=partialRectangle;html=1;whiteSpace=wrap;connectable=0;fillColor=none;top=0;left=0;bottom=0;right=0;overflow=hidden;strokeColor=default;" vertex="1" parent="31">
                    <mxGeometry x="120" width="60" height="40" as="geometry">
                        <mxRectangle width="60" height="40" as="alternateBounds"/>
                    </mxGeometry>
                </mxCell>
                <mxCell id="35" value="" style="shape=tableRow;horizontal=0;startSize=0;swimlaneHead=0;swimlaneBody=0;top=0;left=0;bottom=0;right=0;collapsible=0;dropTarget=0;fillColor=none;points=[[0,0.5],[1,0.5]];portConstraint=eastwest;strokeColor=default;" vertex="1" parent="30">
                    <mxGeometry y="40" width="180" height="40" as="geometry"/>
                </mxCell>
                <mxCell id="36" value="A Protein" style="shape=partialRectangle;html=1;whiteSpace=wrap;connectable=0;fillColor=none;top=0;left=0;bottom=0;right=0;overflow=hidden;strokeColor=default;" vertex="1" parent="35">
                    <mxGeometry width="60" height="40" as="geometry">
                        <mxRectangle width="60" height="40" as="alternateBounds"/>
                    </mxGeometry>
                </mxCell>
                <mxCell id="37" value="protein" style="shape=partialRectangle;html=1;whiteSpace=wrap;connectable=0;fillColor=none;top=0;left=0;bottom=0;right=0;overflow=hidden;strokeColor=default;" vertex="1" parent="35">
                    <mxGeometry x="60" width="60" height="40" as="geometry">
                        <mxRectangle width="60" height="40" as="alternateBounds"/>
                    </mxGeometry>
                </mxCell>
                <mxCell id="38" value="1-1160" style="shape=partialRectangle;html=1;whiteSpace=wrap;connectable=0;fillColor=none;top=0;left=0;bottom=0;right=0;overflow=hidden;strokeColor=default;" vertex="1" parent="35">
                    <mxGeometry x="120" width="60" height="40" as="geometry">
                        <mxRectangle width="60" height="40" as="alternateBounds"/>
                    </mxGeometry>
                </mxCell>
                <mxCell id="39" value="" style="shape=tableRow;horizontal=0;startSize=0;swimlaneHead=0;swimlaneBody=0;top=0;left=0;bottom=0;right=0;collapsible=0;dropTarget=0;fillColor=none;points=[[0,0.5],[1,0.5]];portConstraint=eastwest;strokeColor=default;" vertex="1" parent="30">
                    <mxGeometry y="80" width="180" height="40" as="geometry"/>
                </mxCell>
                <mxCell id="40" value="Domain 1" style="shape=partialRectangle;html=1;whiteSpace=wrap;connectable=0;fillColor=none;top=0;left=0;bottom=0;right=0;overflow=hidden;strokeColor=default;" vertex="1" parent="39">
                    <mxGeometry width="60" height="40" as="geometry">
                        <mxRectangle width="60" height="40" as="alternateBounds"/>
                    </mxGeometry>
                </mxCell>
                <mxCell id="41" value="domain" style="shape=partialRectangle;html=1;whiteSpace=wrap;connectable=0;fillColor=none;top=0;left=0;bottom=0;right=0;overflow=hidden;strokeColor=default;" vertex="1" parent="39">
                    <mxGeometry x="60" width="60" height="40" as="geometry">
                        <mxRectangle width="60" height="40" as="alternateBounds"/>
                    </mxGeometry>
                </mxCell>
                <mxCell id="42" value="50-450" style="shape=partialRectangle;html=1;whiteSpace=wrap;connectable=0;fillColor=none;top=0;left=0;bottom=0;right=0;overflow=hidden;pointerEvents=1;strokeColor=default;" vertex="1" parent="39">
                    <mxGeometry x="120" width="60" height="40" as="geometry">
                        <mxRectangle width="60" height="40" as="alternateBounds"/>
                    </mxGeometry>
                </mxCell>
                <mxCell id="57" value="" style="endArrow=classic;html=1;strokeColor=#999999;strokeWidth=4;fillColor=#1ba1e2;entryX=1;entryY=1;entryDx=0;entryDy=0;curved=1;exitX=0.5;exitY=0;exitDx=0;exitDy=0;" edge="1" parent="1" source="8" target="58">
                    <mxGeometry width="50" height="50" relative="1" as="geometry">
                        <mxPoint x="490" y="313" as="sourcePoint"/>
                        <mxPoint x="490" y="193" as="targetPoint"/>
                        <Array as="points">
                            <mxPoint x="420" y="290"/>
                        </Array>
                    </mxGeometry>
                </mxCell>
                <mxCell id="58" value="&lt;h1&gt;&lt;span style=&quot;background-color: initial;&quot;&gt;Cohort data&lt;/span&gt;&lt;/h1&gt;&lt;h1&gt;&lt;span style=&quot;background-color: initial;&quot;&gt;&lt;i style=&quot;font-size: 12px; font-weight: normal; text-decoration-line: underline;&quot;&gt;XXX.R&lt;/i&gt;&lt;/span&gt;&lt;br&gt;&lt;/h1&gt;&lt;p&gt;This function takes the cohort data as a .csv and does a sanity check. It needs to be specified which column contains the amino-acid postion and which columns should be included in the metadata (aesthetics plotting)&lt;/p&gt;" style="text;html=1;strokeColor=none;fillColor=#999999;spacing=5;spacingTop=-20;whiteSpace=wrap;overflow=hidden;rounded=0;fontColor=#ffffff;" vertex="1" parent="1">
                    <mxGeometry x="70" y="113" width="280" height="170" as="geometry"/>
                </mxCell>
                <mxCell id="59" value="" style="endArrow=classic;html=1;strokeColor=#6F0000;strokeWidth=4;fillColor=#a20025;curved=1;exitX=0.5;exitY=1;exitDx=0;exitDy=0;entryX=0;entryY=0;entryDx=0;entryDy=0;" edge="1" parent="1" source="23" target="60">
                    <mxGeometry width="50" height="50" relative="1" as="geometry">
                        <mxPoint x="540" y="701.71" as="sourcePoint"/>
                        <mxPoint x="535" y="603" as="targetPoint"/>
                        <Array as="points">
                            <mxPoint x="500" y="523"/>
                        </Array>
                    </mxGeometry>
                </mxCell>
                <mxCell id="60" value="&lt;h1&gt;&lt;span style=&quot;background-color: initial;&quot;&gt;ClinVar data&lt;/span&gt;&lt;/h1&gt;&lt;h1&gt;&lt;span style=&quot;background-color: initial;&quot;&gt;&lt;i style=&quot;font-size: 12px; font-weight: normal; text-decoration-line: underline;&quot;&gt;XXX.R&lt;/i&gt;&lt;/span&gt;&lt;br&gt;&lt;/h1&gt;&lt;p&gt;This function takes care of the clinvar data by searching the clinvar .vcf for the gene and transcript name&lt;/p&gt;" style="text;html=1;strokeColor=#6F0000;fillColor=#a20025;spacing=5;spacingTop=-20;whiteSpace=wrap;overflow=hidden;rounded=0;fontColor=#ffffff;" vertex="1" parent="1">
                    <mxGeometry x="560" y="603" width="280" height="170" as="geometry"/>
                </mxCell>
                <mxCell id="61" value="&lt;h1&gt;&lt;span style=&quot;background-color: initial;&quot;&gt;gnomAD data&lt;/span&gt;&lt;/h1&gt;&lt;h1&gt;&lt;span style=&quot;background-color: initial;&quot;&gt;&lt;i style=&quot;font-size: 12px; font-weight: normal; text-decoration-line: underline;&quot;&gt;XXX.R&lt;/i&gt;&lt;/span&gt;&lt;br&gt;&lt;/h1&gt;&lt;p&gt;Searches gnomAD for the input gene&lt;/p&gt;" style="text;html=1;strokeColor=none;fillColor=#4D4D4D;spacing=5;spacingTop=-20;whiteSpace=wrap;overflow=hidden;rounded=0;fontColor=#ffffff;" vertex="1" parent="1">
                    <mxGeometry x="120" y="563" width="280" height="170" as="geometry"/>
                </mxCell>
                <mxCell id="63" value="" style="endArrow=classic;html=1;strokeColor=#4D4D4D;strokeWidth=4;fillColor=#a20025;curved=1;exitX=0;exitY=0.5;exitDx=0;exitDy=0;entryX=1;entryY=0;entryDx=0;entryDy=0;" edge="1" parent="1" source="19" target="61">
                    <mxGeometry width="50" height="50" relative="1" as="geometry">
                        <mxPoint x="445" y="503" as="sourcePoint"/>
                        <mxPoint x="470" y="663" as="targetPoint"/>
                        <Array as="points">
                            <mxPoint x="400" y="493"/>
                        </Array>
                    </mxGeometry>
                </mxCell>
                <mxCell id="64" value="&lt;h1&gt;&lt;span style=&quot;background-color: initial;&quot;&gt;&lt;font color=&quot;#000000&quot;&gt;Plot&lt;/font&gt;&lt;/span&gt;&lt;/h1&gt;&lt;h1&gt;&lt;font color=&quot;#000000&quot;&gt;&lt;i style=&quot;background-color: initial; font-size: 12px; font-weight: normal; text-decoration-line: underline;&quot;&gt;XXX.R&lt;/i&gt;&lt;br&gt;&lt;/font&gt;&lt;/h1&gt;&lt;p&gt;&lt;font color=&quot;#000000&quot;&gt;This function does the plotting&lt;/font&gt;&lt;/p&gt;" style="text;html=1;strokeColor=none;fillColor=#FFFFFF;spacing=5;spacingTop=-20;whiteSpace=wrap;overflow=hidden;rounded=0;fontColor=#ffffff;" vertex="1" parent="1">
                    <mxGeometry x="630" y="53" width="280" height="170" as="geometry"/>
                </mxCell>
                <mxCell id="65" value="" style="endArrow=classic;html=1;strokeColor=#FFFFFF;strokeWidth=4;fillColor=#1ba1e2;entryX=0;entryY=1;entryDx=0;entryDy=0;curved=1;exitX=0.5;exitY=0;exitDx=0;exitDy=0;" edge="1" parent="1" source="2" target="64">
                    <mxGeometry width="50" height="50" relative="1" as="geometry">
                        <mxPoint x="560" y="333" as="sourcePoint"/>
                        <mxPoint x="425" y="83" as="targetPoint"/>
                        <Array as="points">
                            <mxPoint x="630" y="280"/>
                        </Array>
                    </mxGeometry>
                </mxCell>
            </root>
        </mxGraphModel>
    </diagram>
</mxfile>